<svg width="667" height="701" viewBox="0 0 667 701" fill="none" xmlns="http://www.w3.org/2000/svg">
<g filter="url(#filter0_i_45_2)">
<circle cx="317.57" cy="317.57" r="310.991" transform="rotate(0.287073 317.57 317.57)" stroke="white" stroke-width="10"/>
</g>
<path d="M106.234 209.162C109.337 210.327 111.766 211.891 113.52 213.856C115.275 215.82 116.52 218.033 117.256 220.493C117.975 222.912 118.273 225.531 118.149 228.349C118.066 231.15 117.697 233.987 117.043 236.859C116.43 239.714 115.631 242.526 114.646 245.297C113.662 248.068 112.677 250.636 111.692 253.002C110.695 255.396 109.512 258.035 108.142 260.919C106.813 263.786 105.277 266.905 103.535 270.278L39.5662 246.358C40.2657 243.134 41.0738 240.055 41.9905 237.121C42.8783 234.176 43.7268 231.569 44.5359 229.3C45.5012 226.657 46.4788 224.187 47.4687 221.891C48.4395 219.722 49.4886 217.568 50.616 215.429C51.7435 213.29 52.9735 211.311 54.3062 209.493C55.622 207.633 57.0658 205.995 58.6377 204.577C60.2095 203.16 61.9167 202.068 63.7593 201.301C65.6019 200.534 67.6052 200.153 69.7693 200.158C71.9045 200.152 74.2163 200.656 76.7047 201.671C79.9454 202.993 82.4769 204.718 84.2992 206.845C86.0926 208.96 87.3452 211.277 88.057 213.795C88.9666 212.749 89.9234 211.873 90.9274 211.169C91.9025 210.453 92.8959 209.897 93.9075 209.499C94.9312 209.073 95.9502 208.78 96.9646 208.62C97.962 208.42 98.9234 208.306 99.8488 208.278C101.967 208.231 104.095 208.526 106.234 209.162ZM55.44 224.94C54.8754 226.296 54.3062 227.785 53.7324 229.407C53.2257 230.787 52.6928 232.392 52.1337 234.222C51.5866 236.024 51.0493 237.965 50.5219 240.045L72.9453 248.383C73.9204 245.878 74.785 243.598 75.539 241.543C76.2761 239.448 76.9075 237.647 77.4333 236.14C78.0383 234.362 78.5652 232.771 79.014 231.368C79.7871 229.186 80.2867 227.01 80.5128 224.841C80.722 222.632 80.606 220.593 80.165 218.726C79.7239 216.858 78.9132 215.228 77.7329 213.836C76.5646 212.414 74.9547 211.403 72.903 210.802C71.3842 210.385 69.9574 210.275 68.6225 210.473C67.2708 210.631 66.0206 211.032 64.8719 211.677C63.7062 212.281 62.6397 213.095 61.6723 214.118C60.6879 215.1 59.8097 216.193 59.0377 217.397C58.2488 218.56 57.5636 219.799 56.9821 221.114C56.3717 222.418 55.8577 223.693 55.44 224.94ZM88.29 228.723C88.0475 229.468 87.8412 230.126 87.6708 230.698C87.4835 231.229 87.3203 231.702 87.181 232.118C87.0538 232.505 86.9386 232.863 86.8354 233.192C86.7442 233.492 86.6446 233.772 86.5365 234.032C86.0205 235.678 85.442 237.433 84.801 239.298C84.2682 240.903 83.6536 242.744 82.9575 244.823C82.2324 246.89 81.4773 249.028 80.6922 251.239L100.19 258.434C100.584 257.65 100.943 256.868 101.267 256.089C101.592 255.311 101.91 254.546 102.222 253.796C102.787 252.44 103.496 250.738 104.348 248.69C105.184 246.601 105.984 244.396 106.747 242.075C107.494 239.713 108.104 237.312 108.578 234.873C109.035 232.394 109.187 230.076 109.035 227.922C108.866 225.727 108.28 223.8 107.278 222.142C106.287 220.456 104.689 219.213 102.483 218.415C100.812 218.037 99.1328 218.128 97.4441 218.688C96.7311 218.937 95.9701 219.301 95.161 219.781C94.3639 220.232 93.5791 220.857 92.8065 221.656C92.005 222.442 91.2243 223.423 90.4643 224.598C89.6874 225.732 88.9626 227.107 88.29 228.723Z" fill="#D39669"/>
<path d="M158.068 178.172L153.399 173.457C152.818 177.924 151.759 181.915 150.223 185.43C148.707 188.921 146.921 191.884 144.865 194.32C143.414 196.039 141.774 197.521 139.946 198.767C138.162 200.008 136.288 200.871 134.325 201.356C132.357 201.797 130.341 201.812 128.275 201.401C126.205 200.946 124.195 199.912 122.245 198.299C120.294 196.685 118.791 194.955 117.733 193.107C116.676 191.259 115.981 189.345 115.648 187.367C115.314 185.388 115.301 183.369 115.607 181.311C115.913 179.253 116.457 177.228 117.237 175.238C118.038 173.224 119.044 171.258 120.254 169.339C121.441 167.401 122.75 165.584 124.181 163.888C125.511 162.312 126.811 160.894 128.081 159.632C129.35 158.371 130.525 157.294 131.604 156.403C130.138 155.717 128.636 155.124 127.097 154.621C125.534 154.099 123.993 153.817 122.473 153.777C120.949 153.693 119.465 153.925 118.02 154.474C116.576 155.022 115.248 156.013 114.039 157.446C113.253 158.377 112.5 159.559 111.781 160.992C111.038 162.405 110.423 164.127 109.936 166.157C109.449 168.187 109.128 170.578 108.973 173.329C108.794 176.06 108.875 179.21 109.217 182.777L100.248 182.719C100.016 178.634 100.101 174.973 100.502 171.737C100.904 168.5 101.495 165.644 102.277 163.167C103.055 160.648 103.964 158.48 105.006 156.665C106.068 154.826 107.133 153.274 108.201 152.008C110.056 149.812 112.094 148.172 114.316 147.09C116.514 145.989 118.819 145.341 121.232 145.147C123.641 144.909 126.11 145.085 128.637 145.676C131.161 146.222 133.688 147.056 136.219 148.176C138.725 149.276 141.175 150.613 143.568 152.186C145.981 153.736 148.271 155.407 150.438 157.2C152.75 159.112 155.119 161.295 157.546 163.749C159.973 166.203 162.52 168.999 165.187 172.137L158.068 178.172ZM145.767 166.293C144.604 165.25 143.442 164.228 142.282 163.228C141.122 162.228 139.844 161.272 138.447 160.36C137.098 161.231 135.771 162.222 134.465 163.332C133.16 164.442 131.963 165.642 130.875 166.931C129.06 169.08 127.549 171.379 126.342 173.827C125.154 176.251 124.427 178.59 124.16 180.843C123.894 183.096 124.147 185.171 124.918 187.066C125.71 188.938 127.178 190.396 129.323 191.44C131.05 192.301 132.606 192.493 133.99 192.015C135.394 191.514 136.671 190.583 137.82 189.222C138.989 187.837 140.021 186.156 140.914 184.177C141.803 182.155 142.576 180.077 143.232 177.944C143.884 175.766 144.42 173.654 144.838 171.608C145.257 169.562 145.567 167.79 145.767 166.293Z" fill="#D39669"/>
<path d="M144.109 93.608L159.393 116.656C159.92 114.204 160.728 112.055 161.816 110.207C162.913 108.316 164.028 106.731 165.162 105.452C166.478 103.94 167.886 102.649 169.387 101.577C171.157 100.401 173.089 99.4926 175.184 98.8515C177.261 98.1845 179.397 97.7979 181.59 97.6917C183.765 97.5597 185.942 97.708 188.121 98.1369C190.325 98.5484 192.439 99.2448 194.463 100.226C196.496 101.164 198.382 102.387 200.122 103.895C201.861 105.403 203.389 107.184 204.705 109.236C206.135 111.512 207.217 113.832 207.95 116.196C208.684 118.559 209.118 120.897 209.251 123.21C209.392 125.479 209.26 127.706 208.852 129.889C208.445 132.073 207.806 134.11 206.936 136.001C206.092 137.875 205.034 139.572 203.762 141.092C202.507 142.638 201.112 143.921 199.576 144.942C197.953 145.945 196.147 146.788 194.157 147.472C192.453 148.078 190.458 148.56 188.17 148.916C185.883 149.273 183.393 149.276 180.701 148.925L184.147 154.008L176.99 158.987L135.768 99.5982L144.109 93.608ZM196.809 115.549C195.625 113.523 194.115 111.824 192.28 110.455C190.454 109.042 188.477 108.047 186.351 107.472C184.25 106.879 182.082 106.743 179.846 107.065C177.637 107.37 175.551 108.192 173.591 109.532C171.994 110.63 170.656 111.913 169.575 113.381C168.52 114.833 167.717 116.378 167.168 118.018C166.645 119.641 166.362 121.311 166.318 123.029C166.274 124.746 166.465 126.42 166.89 128.05L173.099 137.375C174.654 138.668 176.282 139.65 177.983 140.321C179.666 140.966 181.357 141.344 183.055 141.454C184.761 141.521 186.414 141.342 188.014 140.917C189.622 140.449 191.112 139.778 192.483 138.905C194.418 137.695 195.96 136.183 197.109 134.369C198.284 132.538 199.054 130.583 199.418 128.503C199.791 126.38 199.754 124.209 199.308 121.992C198.889 119.758 198.056 117.61 196.809 115.549Z" fill="#D39669"/>
<path d="M257.365 65.1418C257.351 70.2808 257.336 74.976 257.319 79.2272C257.333 83.4687 257.339 87.3008 257.34 90.7236C257.341 94.1464 257.33 97.1943 257.309 99.8673C257.287 102.54 257.27 104.883 257.256 106.895C257.231 111.61 257.188 115.245 257.127 117.799C257.123 119.743 257.05 121.824 256.908 124.043C256.806 126.282 256.506 128.57 256.009 130.907C255.541 133.234 254.84 135.555 253.907 137.871C253.013 140.208 251.782 142.425 250.215 144.523C248.687 146.641 246.772 148.59 244.471 150.372C242.169 152.153 239.412 153.657 236.198 154.884L231.54 146.797C233.459 146.426 235.16 145.798 236.643 144.913C238.165 144.047 239.483 143.019 240.598 141.827C241.753 140.656 242.734 139.36 243.541 137.941C244.378 136.513 245.077 135.064 245.637 133.595C246.226 132.117 246.687 130.648 247.019 129.189C247.361 127.759 247.639 126.433 247.853 125.21L212.286 81.6756L222.013 76.929L248.346 111.717C248.319 109.291 248.28 106.44 248.231 103.165C248.201 99.8508 248.14 96.2997 248.049 92.5118C247.988 88.7141 247.907 84.7586 247.805 80.6452C247.693 76.5022 247.562 72.3986 247.41 68.3344L257.365 65.1418Z" fill="#D39669"/>
<path d="M378.088 91.9551C377.844 95.2598 377.026 98.0357 375.633 100.283C374.241 102.53 372.467 104.362 370.312 105.779C368.19 107.168 365.759 108.212 363.017 108.91C360.303 109.643 357.475 110.113 354.533 110.32C351.618 110.562 348.691 110.614 345.752 110.476C342.814 110.338 340.069 110.141 337.52 109.886C334.939 109.627 332.071 109.26 328.915 108.787C325.787 108.347 322.358 107.783 318.628 107.095L323.574 38.9988C326.868 38.7326 330.053 38.6124 333.129 38.6384C336.208 38.6332 338.951 38.6885 341.358 38.8044C344.169 38.9608 346.817 39.1793 349.301 39.46C351.658 39.7592 354.022 40.1378 356.394 40.5956C358.766 41.0534 361.014 41.6558 363.136 42.4026C365.293 43.1215 367.273 44.0269 369.078 45.1187C370.882 46.2105 372.412 47.5261 373.668 49.0654C374.924 50.6047 375.855 52.4097 376.459 54.4804C377.067 56.52 377.234 58.8766 376.961 61.5501C376.604 65.0319 375.661 67.9524 374.132 70.3115C372.605 72.6395 370.733 74.5088 368.516 75.9195C369.777 76.4857 370.887 77.1467 371.847 77.9025C372.809 78.6272 373.624 79.4156 374.29 80.2676C374.988 81.1228 375.557 82.0121 375.996 82.9356C376.47 83.8311 376.85 84.7173 377.137 85.5941C377.78 87.6057 378.097 89.7261 378.088 91.9551ZM348.619 47.9656C347.157 47.819 345.567 47.7065 343.847 47.6282C342.379 47.5437 340.688 47.4996 338.772 47.4959C336.887 47.4952 334.872 47.5443 332.725 47.643L331.037 71.4998C333.717 71.7059 336.15 71.8715 338.336 71.9966C340.557 72.0937 342.465 72.1752 344.06 72.2411C345.938 72.3039 347.615 72.3464 349.089 72.3687C351.402 72.4752 353.633 72.3221 355.78 71.9093C357.961 71.4686 359.886 70.7667 361.555 69.8035C363.225 68.8403 364.562 67.5926 365.567 66.0603C366.603 64.5311 367.121 62.6986 367.119 60.5628C367.092 58.9897 366.795 57.5937 366.229 56.3749C365.697 55.128 364.959 54.049 364.016 53.1378C363.107 52.1986 362.025 51.4148 360.77 50.7864C359.549 50.13 358.252 49.6073 356.878 49.2182C355.538 48.8011 354.155 48.5053 352.728 48.3307C351.304 48.1251 349.934 48.0033 348.619 47.9656ZM354.243 80.4706C353.46 80.4548 352.769 80.4483 352.172 80.4512C351.609 80.4262 351.109 80.4073 350.67 80.3948C350.263 80.3853 349.886 80.3789 349.541 80.3757C349.227 80.3756 348.93 80.3615 348.65 80.3334C346.924 80.3173 345.075 80.2731 343.104 80.201C341.412 80.1569 339.47 80.1033 337.277 80.0404C335.088 79.9464 332.821 79.8446 330.476 79.735L329.06 100.463C329.925 100.612 330.777 100.729 331.616 100.813C332.456 100.898 333.28 100.98 334.088 101.061C335.55 101.208 337.384 101.392 339.592 101.614C341.834 101.807 344.177 101.932 346.621 101.989C349.1 102.018 351.578 101.905 354.054 101.651C356.564 101.369 358.833 100.843 360.859 100.073C362.92 99.2744 364.605 98.1558 365.915 96.7168C367.256 95.281 367.999 93.3926 368.144 91.0517C368.036 89.3449 367.475 87.7654 366.462 86.3132C366.022 85.7037 365.457 85.0818 364.768 84.4473C364.11 83.816 363.289 83.2468 362.304 82.7397C361.323 82.2016 360.161 81.7395 358.818 81.3535C357.51 80.9396 355.985 80.6453 354.243 80.4706Z" fill="#D39669"/>
<path d="M413.212 119.807C414.74 120.446 416.351 120.849 418.047 121.016C419.755 121.154 421.433 121.043 423.082 120.683C424.743 120.293 426.323 119.616 427.822 118.651C429.35 117.698 430.71 116.421 431.904 114.82L439.532 119.992C437.609 122.27 435.458 124.165 433.08 125.677C430.702 127.189 428.207 128.296 425.597 129C422.986 129.703 420.321 129.977 417.601 129.822C414.91 129.679 412.281 129.071 409.716 127.998C405.91 126.406 402.782 124.421 400.332 122.041C397.882 119.662 396.096 117.001 394.973 114.059C393.85 111.117 393.388 107.943 393.584 104.536C393.81 101.142 394.702 97.6194 396.26 93.9693C397.793 90.3766 399.828 87.2814 402.363 84.6837C404.94 82.0693 407.786 80.0585 410.901 78.6514C414.016 77.2443 417.297 76.4825 420.744 76.3661C424.191 76.2497 427.587 76.8908 430.932 78.2894C433.93 79.5433 436.504 81.3141 438.653 83.6017C440.815 85.8606 442.478 88.4528 443.641 91.3782C444.817 94.2749 445.474 97.3945 445.61 100.737C445.746 104.08 445.294 107.447 444.254 110.84L404.43 100.739C403.76 102.864 403.48 104.915 403.588 106.891C403.708 108.838 404.149 110.631 404.91 112.27C405.7 113.922 406.788 115.393 408.174 116.684C409.601 117.958 411.28 118.999 413.212 119.807ZM435.47 100.612L435.56 99.6845C435.679 96.3809 435.116 93.5204 433.872 91.1031C432.656 88.6978 430.621 86.8983 427.767 85.7047C426.556 85.1983 425.138 84.8593 423.512 84.6875C421.899 84.4871 420.2 84.6065 418.416 85.0458C416.631 85.485 414.829 86.3235 413.01 87.5611C411.232 88.782 409.593 90.5523 408.093 92.8719L435.47 100.612Z" fill="#D39669"/>
<path d="M472.89 165.126L477.549 160.383C473.027 159.921 468.975 158.975 465.394 157.544C461.837 156.132 458.807 154.439 456.304 152.465C454.538 151.072 453.006 149.486 451.71 147.708C450.418 145.973 449.507 144.14 448.975 142.209C448.488 140.273 448.43 138.277 448.8 136.221C449.215 134.161 450.216 132.144 451.803 130.172C453.39 128.2 455.105 126.668 456.948 125.574C458.791 124.48 460.708 123.743 462.698 123.363C464.689 122.983 466.726 122.918 468.811 123.169C470.895 123.42 472.951 123.906 474.977 124.628C477.027 125.37 479.034 126.315 480.997 127.465C482.979 128.591 484.841 129.84 486.583 131.214C488.203 132.491 489.663 133.742 490.964 134.967C492.265 136.191 493.376 137.327 494.299 138.373C494.96 136.904 495.527 135.402 496.002 133.865C496.495 132.305 496.746 130.772 496.755 129.266C496.807 127.755 496.541 126.292 495.956 124.876C495.371 123.459 494.343 122.171 492.87 121.01C491.913 120.255 490.704 119.54 489.242 118.865C487.799 118.165 486.048 117.6 483.988 117.169C481.928 116.739 479.507 116.481 476.727 116.398C473.966 116.29 470.788 116.451 467.194 116.88L467.06 107.999C471.179 107.666 474.877 107.657 478.153 107.972C481.429 108.287 484.326 108.8 486.842 109.511C489.403 110.217 491.61 111.062 493.465 112.047C495.344 113.051 496.934 114.066 498.234 115.092C500.492 116.872 502.191 118.848 503.331 121.02C504.49 123.168 505.193 125.434 505.441 127.818C505.733 130.197 505.607 132.645 505.065 135.163C504.568 137.675 503.781 140.198 502.704 142.732C501.647 145.241 500.35 147.701 498.813 150.11C497.3 152.538 495.661 154.848 493.898 157.039C492.017 159.376 489.864 161.777 487.439 164.242C485.014 166.707 482.246 169.3 479.134 172.02L472.89 165.126ZM484.618 152.646C485.647 151.467 486.653 150.291 487.638 149.118C488.622 147.944 489.56 146.654 490.451 145.248C489.543 143.934 488.514 142.646 487.366 141.382C486.217 140.118 484.98 138.963 483.655 137.918C481.446 136.177 479.093 134.739 476.596 133.606C474.124 132.492 471.747 131.831 469.466 131.625C467.186 131.418 465.097 131.721 463.2 132.533C461.327 133.365 459.887 134.856 458.879 137.005C458.047 138.737 457.887 140.282 458.398 141.64C458.934 143.018 459.901 144.258 461.3 145.361C462.723 146.483 464.443 147.461 466.459 148.295C468.52 149.124 470.634 149.836 472.802 150.432C475.014 151.022 477.158 151.499 479.233 151.861C481.307 152.224 483.102 152.485 484.618 152.646Z" fill="#D39669"/>
<path d="M492.688 184.33C496.972 181.082 500.844 178.143 504.303 175.514C507.788 172.866 510.899 170.502 513.636 168.42C516.372 166.338 518.786 164.503 520.877 162.915C522.986 161.352 524.802 159.996 526.323 158.847C529.903 156.171 532.556 154.187 534.282 152.894L540.676 161.462L529.751 169.392C531.809 169.203 533.86 169.191 535.903 169.356C537.972 169.504 539.952 169.848 541.842 170.389C543.733 170.93 545.486 171.682 547.103 172.645C548.738 173.634 550.163 174.866 551.378 176.341C552.893 178.179 553.931 179.971 554.493 181.715C555.073 183.485 555.32 185.166 555.232 186.757C555.145 188.348 554.776 189.869 554.127 191.321C553.503 192.754 552.728 194.084 551.801 195.311C550.9 196.52 549.916 197.614 548.851 198.595C547.803 199.6 546.813 200.471 545.879 201.205C541.595 204.454 537.203 207.607 532.704 210.663C528.204 213.719 523.53 216.88 518.68 220.145L513.337 212.155C517.596 209.459 521.836 206.739 526.058 203.992C530.298 201.272 534.44 198.333 538.483 195.178C538.943 194.854 539.503 194.402 540.163 193.822C540.868 193.249 541.546 192.56 542.2 191.756C542.871 190.977 543.466 190.118 543.984 189.179C544.528 188.223 544.874 187.233 545.024 186.21C545.199 185.169 545.12 184.097 544.788 182.993C544.474 181.914 543.808 180.855 542.79 179.814C541.042 178.025 538.091 177.027 533.939 176.819C529.83 176.619 524.376 177.117 517.577 178.315C513.538 181.315 510.31 183.705 507.895 185.484C505.523 187.27 503.729 188.63 502.514 189.562C501.069 190.657 500.1 191.397 499.608 191.783L492.688 184.33Z" fill="#D39669"/>
<path d="M554.472 271.118C551.682 272.133 549.121 272.416 546.788 271.968C544.495 271.539 542.408 270.586 540.526 269.109C538.626 267.672 536.94 265.825 535.468 263.567C533.978 261.349 532.684 258.944 531.588 256.35C530.616 253.644 529.883 250.818 529.39 247.872C529.16 246.625 528.991 245.273 528.884 243.816C528.757 242.399 528.708 240.92 528.736 239.38C528.765 237.84 528.896 236.263 529.129 234.648C529.363 233.034 529.736 231.435 530.248 229.852L538.527 231.678C538.273 233.599 538.06 235.539 537.887 237.497C537.725 239.485 537.663 241.47 537.699 243.452C537.764 245.423 537.963 247.396 538.296 249.37C538.629 251.344 539.16 253.312 539.889 255.275C540.487 256.886 541.14 258.195 541.847 259.201C542.583 260.197 543.302 260.966 544.004 261.509C544.746 262.07 545.466 262.44 546.166 262.618C546.905 262.814 547.572 262.904 548.166 262.888C548.69 262.863 549.226 262.735 549.773 262.502C550.349 262.259 550.877 261.885 551.355 261.378C551.845 260.901 552.26 260.267 552.6 259.479C552.981 258.708 553.217 257.774 553.31 256.677C553.431 255.568 553.389 254.287 553.182 252.832C552.975 251.378 552.573 249.712 551.976 247.834C551.115 245.155 550.432 242.51 549.93 239.899C549.467 237.308 549.332 234.879 549.525 232.615C549.728 230.379 550.33 228.365 551.33 226.571C552.371 224.795 553.959 223.37 556.093 222.294C558.131 221.32 560.103 220.752 562.01 220.59C563.957 220.447 565.8 220.608 567.539 221.072C569.289 221.566 570.945 222.344 572.506 223.405C574.096 224.456 575.544 225.708 576.851 227.161C578.186 228.604 579.364 230.204 580.383 231.962C581.443 233.738 582.331 235.592 583.049 237.526C583.474 238.668 583.915 240.037 584.374 241.633C584.833 243.228 585.202 244.939 585.481 246.767C585.759 248.594 585.882 250.495 585.848 252.469C585.844 254.433 585.576 256.359 585.044 258.248L575.857 258.149C576.167 255.842 576.275 253.708 576.18 251.747C576.125 249.805 576.009 248.101 575.832 246.636C575.597 244.926 575.283 243.361 574.889 241.942C573.445 237.246 571.628 233.834 569.437 231.704C567.257 229.604 564.919 229.009 562.423 229.917C560.661 230.558 559.549 231.511 559.085 232.777C558.651 234.033 558.568 235.559 558.836 237.357C559.104 239.155 559.592 241.189 560.301 243.458C561.011 245.727 561.642 248.191 562.196 250.849C562.822 253.881 563.058 256.538 562.906 258.821C562.754 261.105 562.314 263.061 561.585 264.689C560.856 266.318 559.871 267.657 558.627 268.708C557.414 269.748 556.029 270.552 554.472 271.118Z" fill="#D39669"/>
<g filter="url(#filter1_i_45_2)">
<path d="M479.595 569.621C379.657 641.953 247.572 630.03 184.574 542.989C93.32 416.909 269.459 391.787 322.892 353.113C372.733 317.04 450.723 214.923 546.481 281.051C647.983 351.145 579.533 497.289 479.595 569.621Z" fill="#D39669"/>
</g>
<g filter="url(#filter2_i_45_2)">
<path d="M447.692 575.196C366.255 634.138 258.621 624.422 207.286 553.494C132.925 450.754 276.457 430.283 319.998 398.769C360.612 369.373 424.164 286.16 502.195 340.046C584.907 397.165 529.129 516.254 447.692 575.196Z" fill="#B9714B"/>
</g>
<path d="M333.308 604.947L328.176 582.65L339.558 580.03L339.86 581.34L329.974 583.615L331.862 591.817L340.905 589.735L341.2 591.014L332.156 593.095L334.804 604.602L333.308 604.947Z" fill="white"/>
<path d="M374.411 594.533C371.599 595.473 368.913 595.279 366.356 593.951C363.798 592.624 362.046 590.544 361.1 587.711C360.147 584.858 360.294 582.132 361.54 579.534C362.787 576.936 364.816 575.167 367.629 574.228C370.441 573.289 373.127 573.483 375.684 574.81C378.242 576.137 379.997 578.228 380.95 581.081C381.896 583.914 381.746 586.629 380.5 589.227C379.253 591.825 377.224 593.594 374.411 594.533ZM368.045 575.472C365.616 576.283 363.88 577.819 362.836 580.08C361.812 582.334 361.719 584.715 362.557 587.224C363.388 589.713 364.89 591.551 367.063 592.737C369.25 593.896 371.557 594.07 373.985 593.258C376.434 592.441 378.173 590.915 379.204 588.681C380.228 586.427 380.324 584.056 379.493 581.567C378.655 579.058 377.15 577.211 374.977 576.025C372.804 574.839 370.493 574.655 368.045 575.472Z" fill="white"/>
<path d="M409.885 581.32L401.418 562.462C403.03 561.574 404.42 560.868 405.588 560.344C407.379 559.54 409.067 559.343 410.654 559.753C412.233 560.143 413.407 561.195 414.176 562.907C414.691 564.056 414.836 565.265 414.612 566.535C414.387 567.805 413.991 568.93 413.426 569.909C417.122 571.944 419.378 573.141 420.194 573.5C421.819 574.15 423.318 574.26 424.692 573.83L425.069 574.748C423.971 575.218 423.015 575.46 422.203 575.474C421.382 575.468 420.469 575.258 419.465 574.844C418.48 574.421 416.141 573.145 412.448 571.014C410.872 571.722 409.303 572.368 407.741 572.952L411.228 580.717L409.885 581.32ZM411.221 570.232C411.98 569.892 412.57 569.019 412.991 567.613C413.413 566.208 413.322 564.834 412.719 563.491C412.116 562.149 411.2 561.332 409.971 561.042C408.741 560.752 407.397 560.935 405.937 561.59C405.159 561.94 404.262 562.389 403.246 562.939L407.243 571.843C408.688 571.311 410.014 570.774 411.221 570.232Z" fill="white"/>
<path d="M464.386 526.607L462.155 541.175C464.09 541.786 466.285 542.447 468.739 543.157C471.211 543.855 472.774 544.261 473.429 544.374C474.102 544.475 474.618 544.55 474.978 544.599C475.345 544.617 475.854 544.583 476.507 544.495C477.148 544.389 477.779 544.188 478.401 543.892L478.925 544.772C477.835 545.443 476.842 545.85 475.946 545.993C475.038 546.118 474.163 546.095 473.32 545.925C472.465 545.737 470.519 545.209 467.482 544.34C464.452 543.441 462.157 542.744 460.598 542.246L462.877 527.572L464.386 526.607ZM454.087 533.192L466.412 552.468L465.118 553.296L452.793 534.019L454.087 533.192Z" fill="white"/>
<path d="M495.381 533.032L482.998 516.36L484.18 515.482L496.563 532.155L495.381 533.032Z" fill="white"/>
<path d="M517.094 514.725C519.154 512.934 520.322 510.944 520.595 508.755C520.885 506.552 520.057 504.332 518.111 502.094C516.166 499.857 513.911 498.694 511.346 498.605C508.798 498.503 506.493 499.348 504.432 501.14C502.967 502.414 501.869 503.426 501.136 504.176L513.083 517.916C514.147 517.189 515.484 516.125 517.094 514.725ZM503.572 500.15C505.986 498.05 508.65 497.049 511.561 497.146C514.475 497.213 517.045 498.527 519.27 501.086C521.496 503.646 522.42 506.221 522.043 508.811C521.682 511.386 520.326 513.696 517.976 515.74C516.35 517.154 514.605 518.529 512.743 519.866L499.158 504.242C500.362 503.026 501.833 501.661 503.572 500.15Z" fill="white"/>
<path d="M530.426 478.096C529.626 478.925 529.174 479.793 529.069 480.7C528.965 481.607 529.273 482.409 529.995 483.105C530.824 483.905 531.901 484.279 533.228 484.225C534.178 484.193 535.292 484.052 536.57 483.803C537.847 483.524 538.742 483.35 539.254 483.281C539.766 483.211 540.421 483.162 541.22 483.133C542.698 483.106 543.928 483.567 544.911 484.515C546.185 485.745 546.737 487.108 546.568 488.605C546.397 490.071 545.572 491.572 544.09 493.107C542.623 494.627 540.995 495.516 539.204 495.774L538.931 494.443C540.645 494.081 542.065 493.317 543.19 492.15C544.316 490.983 544.945 489.841 545.076 488.722C545.222 487.588 544.85 486.591 543.959 485.732C543.192 484.991 542.167 484.64 540.885 484.677C539.98 484.693 538.882 484.834 537.589 485.098C536.311 485.347 535.408 485.514 534.882 485.599C534.34 485.669 533.669 485.718 532.87 485.747C531.332 485.775 530.048 485.292 529.02 484.299C527.992 483.307 527.534 482.168 527.647 480.884C527.775 479.584 528.461 478.29 529.705 477C530.95 475.711 532.322 474.796 533.821 474.257L534.295 475.47C532.916 475.978 531.626 476.853 530.426 478.096Z" fill="white"/>
<defs>
<filter id="filter0_i_45_2" x="1.5791" y="1.57916" width="631.981" height="635.982" filterUnits="userSpaceOnUse" color-interpolation-filters="sRGB">
<feFlood flood-opacity="0" result="BackgroundImageFix"/>
<feBlend mode="normal" in="SourceGraphic" in2="BackgroundImageFix" result="shape"/>
<feColorMatrix in="SourceAlpha" type="matrix" values="0 0 0 0 0 0 0 0 0 0 0 0 0 0 0 0 0 0 127 0" result="hardAlpha"/>
<feOffset dy="4"/>
<feGaussianBlur stdDeviation="5"/>
<feComposite in2="hardAlpha" operator="arithmetic" k2="-1" k3="1"/>
<feColorMatrix type="matrix" values="0 0 0 0 0.827451 0 0 0 0 0.588235 0 0 0 0 0.411765 0 0 0 1 0"/>
<feBlend mode="normal" in2="shape" result="effect1_innerShadow_45_2"/>
</filter>
<filter id="filter1_i_45_2" x="158.788" y="259.264" width="437.751" height="361.679" filterUnits="userSpaceOnUse" color-interpolation-filters="sRGB">
<feFlood flood-opacity="0" result="BackgroundImageFix"/>
<feBlend mode="normal" in="SourceGraphic" in2="BackgroundImageFix" result="shape"/>
<feColorMatrix in="SourceAlpha" type="matrix" values="0 0 0 0 0 0 0 0 0 0 0 0 0 0 0 0 0 0 127 0" result="hardAlpha"/>
<feOffset dy="4"/>
<feGaussianBlur stdDeviation="5"/>
<feComposite in2="hardAlpha" operator="arithmetic" k2="-1" k3="1"/>
<feColorMatrix type="matrix" values="0 0 0 0 0 0 0 0 0 0 0 0 0 0 0 0 0 0 0.5 0"/>
<feBlend mode="normal" in2="shape" result="effect1_innerShadow_45_2"/>
</filter>
<filter id="filter2_i_45_2" x="186.273" y="322.293" width="357.713" height="295.464" filterUnits="userSpaceOnUse" color-interpolation-filters="sRGB">
<feFlood flood-opacity="0" result="BackgroundImageFix"/>
<feBlend mode="normal" in="SourceGraphic" in2="BackgroundImageFix" result="shape"/>
<feColorMatrix in="SourceAlpha" type="matrix" values="0 0 0 0 0 0 0 0 0 0 0 0 0 0 0 0 0 0 127 0" result="hardAlpha"/>
<feOffset dx="1" dy="4"/>
<feGaussianBlur stdDeviation="5"/>
<feComposite in2="hardAlpha" operator="arithmetic" k2="-1" k3="1"/>
<feColorMatrix type="matrix" values="0 0 0 0 0 0 0 0 0 0 0 0 0 0 0 0 0 0 0.5 0"/>
<feBlend mode="normal" in2="shape" result="effect1_innerShadow_45_2"/>
</filter>
</defs>
</svg>
